PathFileType	4	(X/Y/Z)	C:/Users/beibeiliu/ov580/test_trc\sequence.19_training_dense_right.trc
DataRate	CameraRate	NumFrames	NumMarkers	Units	OrigDataRate	OrigDataStartFrame	OrigNumFrames
120	120	25	19	mm	120	87	344
Frame#	Time	ThumbCMC			ThumbMCP			ThumbIP			ThumbTip			IndexMCP			IndexPIP			IndexTip			MiddleMCP			MiddlePIP			MiddleTip			RingMCP			RingPIP			RingTip			PinkyMCP			PinkyPIP			PinkyTip			BackHand1			BackHand2			BackHand3	
		X0	Y0	Z0	X1	Y1	Z1	X2	Y2	Z2	X3	Y3	Z3	X4	Y4	Z4	X5	Y5	Z5	X6	Y6	Z6	X7	Y7	Z7	X8	Y8	Z8	X9	Y9	Z9	X10	Y10	Z10	X11	Y11	Z11	X12	Y12	Z12	X13	Y13	Z13	X14	Y14	Z14	X15	Y15	Z15	X16	Y16	Z16	X17	Y17	Z17	X18	Y18	Z18	
86	0.716667	245.708	15.5541	50.2286	218.6	20.0998	46.9736	196.252	16.0721	33.1457	178.64	12.4809	28.5766	195.326	-11.16	15.5238	176.679	-11.9597	32.8272	194.212	-2.87542	60.468	195.204	-28.6938	27.2914	184.441	-22.3542	54.9905	215.513	-9.38503	57.2946	198.546	-41.9453	43.003	197.596	-25.6575	63.733	224.002	-15.7986	62.1154	210.362	-51.6672	48.1291	201.531	-37.616	66.2692	220.078	-22.4032	71.4013	249.857	-35.6875	33.2182	275.636	-29.5708	45.8618	258.551	-9.31596	30.491	
87	0.725	253.705	14.8645	49.3543	224.487	20.3399	37.3802	202.218	17.7973	27.098	182.435	7.29435	21.7624	200.119	-12.667	14.1057	179.313	-7.55433	29.4442	191.002	8.11916	53.5359	194.314	-24.6471	27.2067	183.832	-12.8067	50.0889	213.528	-6.56839	60.8964	198.135	-36.6345	42.208	196.541	-21.6383	64.5237	222.105	-12.6934	64.9817	207.14	-49.933	52.9084	200.691	-32.1778	67.2652	224.028	-20.0852	72.7122	252.388	-40.2392	37.6172	272.124	-32.5473	51.1186	262.837	-12.983	35.2008	
88	0.733333	259.982	14.917	47.9252	231.488	24.964	32.2827	211.176	13.8464	25.5418	193.523	-4.10804	28.453	204.628	-10.1425	12.6958	180.852	-1.52137	28.9212	195.613	14.1379	50.7941	195.66	-24.0054	26.326	182.29	-9.88461	46.3171	211.93	1.09562	60.2714	197.09	-28.936	40.306	195.577	-12.6135	60.9862	224.324	-10.6753	66.1425	205.769	-43.1259	51.1286	199.219	-24.7539	68.6945	225.377	-14.9588	70.8768	247.315	-37.8041	38.3201	270.67	-32.894	51.6094	263.892	-14.5069	33.5298	
89	0.741667	260.039	12.8614	42.1354	235.03	23.1556	30.3495	211.405	11.6022	23.3104	198.751	-5.02553	32.7761	206.697	-4.95177	10.5685	185.448	7.31465	21.8325	198.411	16.5713	51.029	198.94	-19.9396	23.1637	182.744	-1.74618	41.7287	210.473	6.51747	57.1061	196.654	-25.7814	38.1109	192.782	-10.8025	57.5157	219.686	-3.05402	62.4891	202.45	-39.94	53.5171	196.787	-19.646	63.8137	220.302	-9.173	70.1288	248.994	-39.9254	42.4456	269.215	-36.3441	55.321	264.021	-15.3961	30.6012	
90	0.75	263.067	14.9098	42.5611	233.962	22.666	27.2751	210.479	8.82557	22.841	196.689	-9.09818	36.1973	207.08	0.923757	6.89931	187.848	10.199	22.9023	200.96	23.0652	46.4176	200.473	-17.1215	20.4156	182.842	2.8327	36.6543	204.847	10.9954	57.5022	197.584	-25.5698	37.7436	194.287	-2.9082	55.8658	221.087	-2.04591	62.47	202.608	-34.862	51.6247	196.768	-15.044	66.0254	219.043	-6.53253	67.7649	245.407	-37.1754	39.2162	272.092	-32.538	56.2521	265.291	-15.6956	30.0701	
91	0.758333	263.534	11.3981	42.2546	235.319	23.0814	25.7667	215.381	13.6247	26.192	197.249	-4.93831	35.2978	207.866	0.594943	8.43935	190.079	18.6844	23.6012	205.364	26.5055	46.073	199.111	-12.089	19.1963	183.851	8.647	38.0136	207.575	14.6558	56.6469	195.938	-19.2448	35.3988	193.585	0.590578	56.7839	219.012	2.46401	60.9999	199.904	-32.3577	52.6694	198.569	-8.8557	64.7243	220.679	-4.25298	68.3943	243.596	-38.0504	39.1905	268.756	-36.077	56.2747	266.248	-16.2293	32.8344	
92	0.766667	263.734	13.2061	39.8306	238.726	22.5392	28.8858	215.111	16.7022	23.9047	202.237	-2.62134	35.29	210.122	5.90871	6.32753	191.317	22.8713	21.9746	206.709	28.4337	45.8817	199.779	-8.75287	16.9144	185.434	12.8321	34.0475	205.285	14.7503	57.1907	197.053	-15.2537	33.7292	191.115	2.08168	51.6592	222.085	1.45738	62.5381	196.846	-25.6926	50.9498	196.593	-6.42167	61.2535	223.882	-1.58716	67.0377	243.731	-37.255	39.833	268.182	-37.0117	57.3324	264.816	-15.7473	33.5567	
93	0.775	265.305	13.0548	40.5462	239.941	27.4455	27.7476	214.965	15.5344	21.5277	197.066	0.809601	32.4809	211.74	7.11367	5.45178	193.151	25.4663	17.452	207.674	29.8267	45.6384	202.801	-5.52103	14.3219	184.556	13.519	35.5649	208.997	19.0932	54.3221	196.014	-12.6958	33.5162	192.568	5.12223	49.8608	217.903	8.78531	59.0991	198.601	-22.7886	49.78	197.853	-3.12226	63.2694	224.75	-0.941942	66.5515	240.716	-37.4973	39.3825	268.746	-32.5566	56.3163	263.847	-16.9297	29.4971	
94	0.783333	266.638	14.2289	43.9358	242.223	30.0079	28.5923	215.383	20.2359	20.331	199.672	0.867303	33.0323	210.511	8.2051	5.91745	192.935	26.8136	19.9868	208.493	36.3634	42.1757	200.726	-3.02117	13.5715	185.742	17.1369	32.9187	209.746	20.9427	53.9336	194.61	-11.2851	32.1553	192.567	6.91365	50.4498	218.289	8.07969	61.9416	201.33	-20.6749	46.3141	199.484	0.393222	59.2926	227.731	0.326611	64.444	240.109	-34.6241	39.1521	262.175	-34.3295	53.223	267.585	-14.6818	30.7808	
95	0.791667	266.456	16.7687	40.1218	242.263	32.0162	25.9158	214.413	21.4801	18.8531	202.272	4.92029	30.7355	214.11	11.6651	2.82557	193.921	28.9318	17.7735	208.918	37.8174	40.5541	201.041	-3.84787	14.3944	185.08	19.8125	29.2944	206.839	22.9479	53.278	196.94	-8.65349	29.8305	193.433	11.1568	47.6186	219.452	10.3614	59.318	198.432	-16.9264	45.195	200.772	3.00782	60.5535	224.437	1.34835	63.5493	241.434	-32.7793	36.0778	262.566	-34.3124	52.2071	261.663	-16.3574	29.5523	
96	0.8	266.666	18.2152	38.0438	240.89	28.1481	25.5954	218.339	24.1518	19.9209	200.049	7.15798	29.4834	213.359	15.2661	0.788318	195.66	33.2496	12.3515	206.181	37.8168	40.6088	198.195	4.61995	10.4532	183.937	21.2235	29.5165	205.42	27.9038	50.2591	195.616	-7.35564	30.986	196.111	15.4942	49.6319	223.07	13.2061	54.3534	195.477	-17.5853	46.8844	201.634	6.87339	56.4162	223.791	5.85386	63.5955	241.156	-29.6117	36.0813	261.899	-31.0243	49.4167	264.926	-13.9207	30.4383	
97	0.808333	265.731	20.8995	37.6709	242.161	30.8405	25.2481	217.567	30.1005	17.2068	200.411	9.77327	28.1158	212.241	15.6754	0.893079	195.492	34.6166	13.8398	208.623	40.629	39.2807	198.111	8.16564	7.95581	185.752	27.2023	24.9112	208.688	29.5973	49.2455	192.714	-0.586541	29.1458	193.122	16.116	47.7327	220.28	12.4791	56.6866	196.846	-11.6142	42.9355	201.024	7.9894	60.0422	226.784	4.66262	63.0121	236.692	-28.6037	33.9042	260.152	-31.0231	47.3495	262.64	-10.7627	27.0707	
98	0.816667	267.275	22.7267	38.8554	243.205	37.4579	24.8665	219.47	30.4687	17.8996	197.376	13.9662	25.4842	211.116	18.1993	0.0399802	193.276	35.721	13.4012	210.495	46.2132	37.8309	196.488	8.90655	8.19605	185.082	30.5769	27.7233	207.096	33.9231	46.4732	194.179	-0.27031	27.5955	193.159	19.5025	45.1382	218.918	16.1647	53.9829	193.976	-12.1774	44.091	201.77	13.0809	54.6159	224.877	7.29358	58.1053	238.358	-24.1926	31.9899	260.009	-29.658	48.8641	260.429	-6.9712	23.7903	
99	0.825	266.121	23.1871	35.5641	243.555	37.6974	23.2497	217.932	33.9847	13.7304	195.505	20.3545	21.2554	211.491	23.738	-2.17278	193.646	40.7777	8.8185	208.692	47.0208	36.8486	196.689	14.6743	6.22526	184.77	32.5591	25.2804	209.8	35.4219	45.2829	191.943	5.30661	26.98	193.85	22.5192	47.5108	219.076	16.1601	54.502	190.678	-6.29382	43.2065	198.69	12.8232	58.3039	225.213	10.8406	57.2555	232.768	-22.5555	30.3593	256.284	-29.6085	47.3143	258.784	-5.66099	24.9395	
100	0.833333	264.436	23.7614	36.6819	244.496	42.371	20.9821	221.28	42.1738	12.8748	199.296	26.1928	16.7071	208.687	23.4264	-2.06041	190.683	43.6341	9.89888	202.459	48.38	34.4212	195.761	15.2313	8.75204	185.034	34.0083	29.3064	210.527	33.6775	45.7036	191.687	5.26678	25.8897	193.745	26.0661	45.3432	222.082	16.8343	51.552	192.834	-5.84907	39.9461	196.349	15.324	52.6798	222.656	10.3363	57.8721	234.761	-18.8063	28.7413	254.339	-27.1945	45.4975	258.143	-5.35495	23.0745	
101	0.841667	261.749	28.5322	32.9751	241.469	42.1266	21.1938	219.488	47.1306	7.41668	197.9	41.5032	7.67146	207.48	30.1796	-5.98663	189.724	45.8844	6.92754	203.924	48.8142	35.3138	193.186	19.4341	8.2961	185.816	36.903	28.0328	215.9	32.4412	44.4324	191.581	10.7796	23.0953	193.951	26.8699	44.6049	221.091	20.1198	50.0065	194.013	-4.03986	36.6244	197.186	15.8217	52.2931	222.682	12.9057	55.6643	234.763	-18.3171	29.2681	255.894	-21.3653	44.2352	255.881	-2.9271	22.5971	
102	0.85	258.667	28.983	35.306	241.353	48.2589	22.871	221.894	56.5291	6.92779	203.81	56.0879	2.31955	208.431	30.2915	-5.91193	188.728	45.9095	7.57667	205.398	48.1831	33.9451	194.642	20.2456	6.45498	186.377	37.5839	30.8916	217.393	28.6948	43.5624	191.578	9.36852	22.4193	193.111	27.9453	42.3662	220.252	21.4869	49.0833	190.561	-0.0437578	34.5401	195.411	16.1122	50.6302	220.132	12.9658	54.7125	231.906	-14.8654	22.0194	255.533	-21.4662	42.7763	255.547	-0.441802	22.1308	
103	0.858333	260.207	34.0065	35.1569	241.345	49.5713	21.941	225.17	56.9072	6.38781	207.739	63.618	-8.07127	206.605	33.8766	-8.03994	192.641	52.448	8.22232	211.237	50.6578	31.7656	194.926	22.1887	4.43931	189.044	42.3638	26.1221	215.939	35.5644	39.433	190.46	15.751	17.9975	192.416	29.6173	38.9292	218.564	21.9972	46.8741	188.108	2.56643	31.774	193.78	19.92	45.9072	219.95	16.5831	51.2229	230.84	-14.6598	21.4946	253.861	-17.9498	40.4872	258.069	5.12478	20.12	
104	0.866667	258.079	31.0347	36.6836	244.262	53.0956	17.7994	228.079	57.4347	1.95403	215.922	64.6902	-9.40221	215.184	38.9312	-13.0205	196.647	56.8505	3.69267	209.907	49.2623	28.9371	198.437	30.098	-2.78776	188.908	43.6708	21.3712	214.831	34.3815	38.1605	190.98	17.2037	13.8881	195.795	35.1434	34.6115	218.578	20.5995	44.0933	189.382	3.74279	25.1868	193.776	21.898	43.1465	222.637	15.7682	45.6529	233.346	-13.4852	21.6945	250.968	-17.6191	42.8532	255.163	2.87308	23.2932	
105	0.875	259.647	31.7189	33.9518	246.505	52.797	16.5204	232.437	60.7876	-2.77894	221.22	66.4254	-16.182	217.263	40.0059	-16.0524	201.386	57.3528	-2.39469	211.134	54.2742	24.29	201.475	29.8662	-5.61577	190.85	46.3673	13.8044	216.458	37.1606	34.0734	193.349	23.2809	9.15563	198.555	38.1654	30.0628	219.252	26.5696	39.9406	189.793	7.93568	21.2369	197.444	26.7034	38.2281	219.636	17.3631	42.9259	230.721	-11.2305	19.2074	250.028	-15.5546	41.0095	255.933	5.58395	20.2565	
106	0.883333	263.288	34.386	33.4144	250.761	52.513	15.064	237.152	58.6951	-5.87498	227.617	65.0679	-16.9579	219.547	36.8232	-17.6765	203.545	54.7394	-8.61562	213.063	54.8215	21.8428	202.315	29.5485	-8.09857	194.107	48.725	12.1004	220.509	36.7033	31.2815	195.535	23.929	4.76091	197.714	39.6205	24.4643	219.73	29.0815	35.5182	189.878	8.17097	19.1844	196.408	27.5263	37.3459	216.496	17.9112	43.6054	228.271	-14.406	19.6708	245.371	-18.1845	44.2507	255.744	2.91617	19.9092	
107	0.891667	263.006	34.1147	34.8267	249.323	48.1238	13.7437	240.348	55.7637	-8.56664	233.806	64.9193	-23.3673	227.001	36.1839	-21.9588	210.464	59.4631	-12.9041	218.312	55.9351	18.0653	207.047	31.4119	-14.0141	198.811	50.9888	4.52859	216.238	39.1421	28.1483	198.869	23.6513	1.13426	198.206	40.3193	23.9053	219.982	29.4256	32.6299	189.71	12.8119	15.4463	194.112	31.2162	29.1556	219.524	21.3664	37.5028	228.288	-12.5694	20.7599	244.99	-14.966	41.6064	257.367	2.53047	23.3569	
108	0.9	261.552	31.3	35.3929	253.629	48.4683	9.39599	247.606	57.4215	-10.8202	239.563	61.0306	-27.3587	231.486	32.2558	-23.519	213.883	57.4302	-16.5267	222.57	57.1114	12.7179	214.888	26.8188	-16.1019	198.766	49.7549	-1.30206	220.187	42.923	22.5963	198.908	25.8512	-2.61165	198.922	43.0736	17.6292	220.193	28.918	32.6184	190.482	17.1762	11.1306	195.963	34.4475	22.369	218.471	24.6331	36.9232	227.083	-11.485	22.9349	244.443	-13.2428	43.2286	257.769	0.145627	23.9769	
109	0.908333	265.198	31.1302	32.8607	257.357	44.5072	10.2569	251.62	51.0874	-15.6356	245.757	55.2789	-32.5079	238.278	28.531	-25.4219	222.086	52.7536	-25.5954	226.527	56.1607	7.71345	212.517	26.883	-19.718	207.804	52.2366	-9.35553	220.861	44.365	19.1776	199.459	23.7053	-4.85729	199.916	45.0222	8.96129	220.155	35.1066	27.789	193.662	17.3817	5.91177	198.749	38.375	18.7589	219.176	28.2494	30.1146	227.07	-9.80655	23.1611	238.958	-13.9301	46.6571	255.173	0.445935	27.7596	
110	0.916667	266.81	28.8999	28.9891	260.959	42.9302	6.29915	260.685	48.9004	-15.3286	256.274	52.1682	-36.9911	238.771	21.9406	-26.3485	226.398	49.8377	-27.7472	233.24	55.8408	0.443693	221.829	22.5618	-23.2057	211.346	51.4994	-12.2001	226.279	45.0675	14.637	204.549	21.3328	-8.60184	209.247	48.4179	1.99425	222.927	40.3776	20.428	194.032	18.3371	3.00118	202.157	40.1147	9.41215	220	33.6727	29.2076	225.3	-9.24778	25.3971	237.34	-8.96034	50.8436	255.688	-2.40626	26.3126	
